<?xml version="1.0" standalone="no"?>
<!DOCTYPE svg PUBLIC "-//W3C//DTD SVG 20010904//EN"
 "http://www.w3.org/TR/2001/REC-SVG-20010904/DTD/svg10.dtd">
<svg version="1.0" xmlns="http://www.w3.org/2000/svg"
 width="581.000000pt" height="575.000000pt" viewBox="0 0 581.000000 575.000000"
 preserveAspectRatio="xMidYMid meet">
<metadata>
Created by potrace 1.16, written by Peter Selinger 2001-2019
</metadata>
<g transform="translate(0.000000,575.000000) scale(0.100000,-0.100000)"
fill="#f8f8f8" stroke="none">
<path d="M552 5427 c-293 -707 -450 -1359 -514 -2132 -16 -194 -16 -798 0
-985 69 -793 228 -1454 514 -2139 33 -80 64 -149 67 -153 3 -4 6 133 7 305 1
412 25 696 89 1083 120 720 356 1416 696 2056 45 84 84 156 88 160 11 12 129
-286 216 -547 90 -268 163 -544 219 -825 67 -335 77 -429 86 -775 5 -176 13
-358 19 -405 21 -160 44 -280 55 -280 6 0 232 126 501 279 413 235 490 283
492 303 55 520 225 963 523 1363 78 104 337 378 350 370 13 -8 48 -154 61
-250 12 -94 7 -236 -12 -340 -7 -40 -25 -84 -54 -130 -58 -93 -107 -201 -139
-305 -35 -117 -70 -350 -51 -350 3 0 114 62 247 138 134 76 294 167 357 203
91 51 117 71 132 100 30 60 133 190 200 255 88 83 171 143 276 196 176 91 334
128 547 128 l131 0 -25 20 c-39 32 -177 95 -270 125 -175 54 -391 69 -570 39
-142 -24 -131 -28 -147 41 -33 146 -96 292 -177 412 l-42 63 -335 188 c-184
104 -352 200 -374 214 -22 13 -136 77 -253 142 l-212 118 -37 -28 c-58 -44
-238 -220 -326 -319 -45 -49 -84 -91 -87 -93 -3 -1 -34 60 -68 135 -105 235
-309 598 -449 803 l-58 84 -400 226 c-220 124 -571 323 -780 442 -209 118
-390 220 -401 226 -20 11 -25 3 -92 -161z"/>
</g>
</svg>
