<svg width="51" height="50" viewBox="0 0 51 50" fill="none" xmlns="http://www.w3.org/2000/svg">
<g id="1908, Business, Businessman, Conference, Discussion, Meeting">
<g id="Group">
<path id="Vector" d="M46.3 18.7002C45.15 18.7002 44 19.1102 43.18 20.0002L40.14 21.7902H34.63V19.7602C34.63 15.2102 30.44 11.4702 25.17 11.4702C19.9 11.4702 15.71 15.1302 15.71 19.6802C15.71 20.2502 16.2 20.7402 16.78 20.7402C17.36 20.7402 17.85 20.2502 17.85 19.6802C17.85 16.2702 21.14 13.5002 25.17 13.5002C29.2 13.5002 32.49 16.2602 32.49 19.6802V22.5302C31.5 23.3402 31.17 24.7202 31.58 25.8602H18.67C18.75 25.5302 18.83 25.2102 18.83 24.8002C18.83 23.0902 17.43 21.7102 15.71 21.7102H10.28L7.24 19.9202C6.42 19.1102 5.27 18.6202 4.03 18.6202C1.73 18.7002 0 20.4902 0 22.7702V35.2102C0 37.4902 1.89 39.3602 4.19 39.3602H10.11L16.94 49.1202C17.27 49.6102 17.93 49.6902 18.42 49.3602C18.91 49.0302 19 48.3802 18.67 47.9002L11.52 37.7402C11.36 37.5002 11.03 37.3302 10.7 37.3302H4.2C3.05 37.3302 2.14 36.4402 2.14 35.3002V22.8602C2.14 21.7202 3.04 20.7502 4.28 20.8302C4.86 20.8302 5.43 21.0702 5.76 21.5602C5.84 21.6402 5.92 21.7202 6.01 21.8002L9.46 23.8302C9.62 23.9102 9.79 23.9902 10.04 23.9902H15.71C16.29 23.9902 16.78 24.4802 16.78 25.0502C16.78 25.6202 16.29 26.1102 15.71 26.1102H9.46C9.29 26.1102 9.05 26.0302 8.88 25.9502L7.89 25.3802C7.56 25.2202 7.15 25.2202 6.82 25.3802C6.49 25.5402 6.33 25.9502 6.33 26.2702V34.4002C6.33 34.9702 6.82 35.4602 7.4 35.4602H11.59C11.84 35.4602 12.08 35.5402 12.25 35.7002L19.98 46.4302C20.31 46.9202 20.97 47.0002 21.46 46.6702C21.95 46.3402 22.04 45.6902 21.71 45.2102C13.32 33.5002 13.9 34.2402 13.73 34.0702C13.15 33.5002 12.33 33.1802 11.51 33.1802H8.39V27.8102C8.72 27.8902 9.05 27.9702 9.46 27.9702H24.1V48.7002C24.1 49.2702 24.59 49.7602 25.17 49.7602C25.75 49.7602 26.24 49.2702 26.24 48.7002V27.9702H40.88C41.21 27.9702 41.62 27.8902 41.95 27.8102V33.1802H38.83C38.01 33.1802 37.19 33.5102 36.61 34.0702C36.53 34.1502 37.02 33.5002 28.72 44.9602C28.39 45.4502 28.47 46.1002 28.97 46.4202C29.46 46.7502 30.12 46.6602 30.45 46.1802L38.18 35.4502C38.35 35.2902 38.59 35.2102 38.84 35.2102H43.03C43.61 35.2102 44.1 34.7202 44.1 34.1502V26.0202C44.1 25.6102 43.93 25.2902 43.61 25.1302C43.28 24.9702 42.87 24.9702 42.54 25.1302L41.55 25.7002C41.39 25.7802 41.22 25.8602 40.97 25.8602H34.72C34.14 25.8602 33.65 25.3702 33.65 24.8002C33.65 24.2302 34.14 23.7402 34.72 23.7402H40.39C40.55 23.7402 40.8 23.6602 40.97 23.5802L44.42 21.5502C44.5 21.4702 44.58 21.3902 44.67 21.3102C45.08 20.8202 45.66 20.5802 46.31 20.5802C47.46 20.6602 48.37 21.5602 48.37 22.6102V35.0502C48.37 36.1902 47.47 37.0802 46.31 37.0802H39.81C39.48 37.0802 39.15 37.2402 38.99 37.4902L31.84 47.6502C31.51 48.1402 31.59 48.7902 32.09 49.1102C32.58 49.4402 33.24 49.3502 33.57 48.8702L40.4 39.1102H46.16C48.46 39.1102 50.35 37.2402 50.35 34.9602V22.8502C50.35 20.5702 48.62 18.7902 46.32 18.7002H46.3Z" fill="#F8F8FA"/>
<path id="Vector_2" d="M45.0701 17.6402C47.9501 17.6402 50.3301 15.2802 50.3301 12.4402C50.3301 9.60023 47.9501 7.24023 45.0701 7.24023C42.1901 7.24023 39.8101 9.60023 39.8101 12.4402C39.8101 15.2802 42.1901 17.6402 45.0701 17.6402ZM45.0701 9.35023C46.8001 9.35023 48.1901 10.7302 48.1901 12.4402C48.1901 14.1502 46.7901 15.5302 45.0701 15.5302C43.3501 15.5302 41.9401 14.1502 41.9401 12.4402C41.9401 10.7302 43.3401 9.35023 45.0701 9.35023Z" fill="#F8F8FA"/>
<path id="Vector_3" d="M5.26 17.6402C8.14 17.6402 10.52 15.2802 10.52 12.4402C10.52 9.60023 8.14 7.24023 5.26 7.24023C2.38 7.24023 0 9.59023 0 12.4402C0 15.2902 2.38 17.6402 5.26 17.6402ZM5.26 9.35023C6.99 9.35023 8.38 10.7302 8.38 12.4402C8.38 14.1502 6.98 15.5302 5.26 15.5302C3.54 15.5302 2.13 14.1502 2.13 12.4402C2.13 10.7302 3.53 9.35023 5.26 9.35023Z" fill="#F8F8FA"/>
<path id="Vector_4" d="M25.1699 10.41C28.0499 10.41 30.4299 8.05 30.4299 5.21C30.4299 2.37 28.0399 0 25.1699 0C22.2999 0 19.9099 2.36 19.9099 5.2C19.9099 8.04 22.2899 10.4 25.1699 10.4V10.41ZM25.1699 2.12C26.8999 2.12 28.2899 3.5 28.2899 5.21C28.2899 6.92 26.8899 8.3 25.1699 8.3C23.4499 8.3 22.0399 6.92 22.0399 5.21C22.0399 3.5 23.4399 2.12 25.1699 2.12Z" fill="#F8F8FA"/>
</g>
</g>
</svg>
