<svg width="51" height="50" viewBox="0 0 51 50" fill="none" xmlns="http://www.w3.org/2000/svg">
<g id="1909, Internet, Marketing, Media, Network, Seo">
<g id="Group">
<path id="Vector" d="M34.4599 24.8004C34.4599 29.9204 30.1799 34.1504 24.9999 34.1504C24.4199 34.1504 23.9299 34.6404 23.9299 35.2104C23.9299 35.7804 24.4199 36.2704 24.9999 36.2704C31.3299 36.2704 36.5099 31.1504 36.5099 24.8904C36.5099 24.3204 36.0199 23.8304 35.4399 23.8304C34.8599 23.7504 34.4499 24.2404 34.4499 24.8104L34.4599 24.8004Z" fill="#892D7A"/>
<path id="Vector_2" d="M26.07 14.4702C26.07 13.9002 25.58 13.4102 25 13.4102C18.67 13.4102 13.49 18.5302 13.49 24.7902C13.49 25.3602 13.98 25.8502 14.56 25.8502C15.14 25.8502 15.63 25.3602 15.63 24.7902C15.55 19.6702 19.82 15.4402 25.01 15.4402C25.59 15.4402 26.08 15.0302 26.08 14.4602L26.07 14.4702Z" fill="#892D7A"/>
<path id="Vector_3" d="M30.4299 30.0001V27.4001C30.4299 25.4501 29.3599 23.7401 27.7999 22.8501C28.3799 22.2001 28.6199 21.3901 28.6199 20.4901C28.6199 18.4601 26.9799 16.8301 24.9199 16.8301C22.8599 16.8301 21.2199 18.4601 21.2199 20.4901C21.2199 21.3801 21.5499 22.2001 22.0399 22.8501C20.4799 23.8301 19.4099 25.4501 19.4099 27.4001V30.0001C19.4099 30.5701 19.8999 31.0601 20.4799 31.0601H29.1999C29.9399 30.9801 30.4299 30.5701 30.4299 30.0001ZM23.4399 20.4901C23.4399 19.6001 24.1799 18.9501 24.9999 18.9501C25.8199 18.9501 26.5599 19.6801 26.5599 20.4901C26.5599 21.3801 25.8199 22.0301 24.9999 22.0301C24.1799 22.0301 23.4399 21.3001 23.4399 20.4901ZM28.2899 28.9401H21.6299V27.4001C21.6299 25.6101 23.1099 24.1501 24.9199 24.1501C26.7299 24.1501 28.2099 25.6101 28.2099 27.4001V28.9401H28.2899Z" fill="#892D7A"/>
<path id="Vector_4" d="M47.04 21.7102C45.64 21.7102 44.49 22.6002 44.08 23.7402H41.78C41.53 19.9202 39.97 16.5002 37.59 13.8202L39.23 12.1902C40.38 12.7602 41.86 12.5202 42.85 11.6202C44.08 10.4002 44.08 8.45023 42.85 7.23023C41.62 6.01023 39.64 6.01023 38.41 7.23023C37.42 8.21023 37.26 9.59023 37.83 10.8102L36.19 12.4402C33.48 10.0802 30.02 8.54023 26.16 8.29023V6.01023C27.39 5.60023 28.22 4.47023 28.22 3.08023C28.22 1.37023 26.82 -0.00976562 25.09 -0.00976562C23.36 -0.00976562 21.97 1.37023 21.97 3.08023C21.97 4.46023 22.87 5.60023 24.03 6.01023V8.29023C20.16 8.53023 16.71 10.0802 14 12.4402L12.35 10.8102C12.93 9.67023 12.68 8.21023 11.77 7.23023C10.54 6.01023 8.56002 6.01023 7.33002 7.23023C6.10002 8.45023 6.10002 10.4002 7.33002 11.6202C8.32002 12.6002 9.71002 12.7602 10.95 12.1902L12.6 13.8202C10.22 16.5002 8.65002 19.9202 8.41002 23.7402H6.11002C5.70002 22.5202 4.55002 21.7102 3.15002 21.7102C1.42002 21.7102 0.0200195 23.0902 0.0200195 24.8002C0.0200195 26.5102 1.42002 27.8902 3.15002 27.8902C4.55002 27.8902 5.70002 27.0002 6.11002 25.8602H8.41002C8.66002 29.6802 10.22 33.1002 12.6 35.7802L10.95 37.4102C9.80002 36.8402 8.32002 37.0802 7.33002 37.9802C6.10002 39.2002 6.10002 41.1502 7.33002 42.3702C8.56002 43.5902 10.54 43.5902 11.77 42.3702C12.76 41.3902 12.92 40.0102 12.35 38.7902L14 37.1602C16.71 39.5202 20.17 41.0602 24.03 41.3102V43.5902C22.8 44.0002 21.97 45.1302 21.97 46.5202C21.97 48.2302 23.37 49.6102 25.09 49.6102C26.81 49.6102 28.22 48.2302 28.22 46.5202C28.22 45.1402 27.31 44.0002 26.16 43.5902V41.3102C30.02 41.0702 33.48 39.5202 36.19 37.1602L37.83 38.7902C37.25 39.9302 37.5 41.3902 38.41 42.3702C39.64 43.5902 41.62 43.5902 42.85 42.3702C44.08 41.1502 44.08 39.2002 42.85 37.9802C41.86 37.0002 40.47 36.8402 39.23 37.4102L37.59 35.7802C39.97 33.1002 41.54 29.6802 41.78 25.8602H44.08C44.49 27.0802 45.64 27.8902 47.04 27.8902C48.77 27.8902 50.16 26.5102 50.16 24.8002C50.16 23.0902 48.76 21.7102 47.04 21.7102ZM40.54 8.38023C40.79 8.38023 41.12 8.46023 41.28 8.71023C41.69 9.12023 41.69 9.77024 41.28 10.1702C40.87 10.5802 40.21 10.5802 39.8 10.1702C39.64 10.0102 39.47 9.68023 39.47 9.44023C39.47 8.87023 39.96 8.38023 40.54 8.38023ZM25 2.04023C25.58 2.04023 26.07 2.53023 26.07 3.10023C26.07 3.67023 25.58 4.16023 25 4.16023C24.42 4.16023 23.93 3.67023 23.93 3.10023C23.93 2.45023 24.42 2.04023 25 2.04023ZM8.72002 10.1602C8.31002 9.75023 8.31002 9.10023 8.72002 8.70023C9.13002 8.29023 9.79002 8.29023 10.2 8.70023C10.61 9.11023 10.61 9.76023 10.2 10.1602C9.79002 10.5702 9.13002 10.5702 8.72002 10.1602ZM2.96002 25.8502C2.38002 25.8502 1.89002 25.3602 1.89002 24.7902C1.89002 24.2202 2.38002 23.7302 2.96002 23.7302C3.54002 23.7302 4.03002 24.2202 4.03002 24.7902C4.03002 25.3602 3.54002 25.8502 2.96002 25.8502ZM10.2 40.8902C9.79002 41.3002 9.13002 41.3002 8.72002 40.8902C8.31002 40.4802 8.31002 39.8302 8.72002 39.4302C9.13002 39.0202 9.79002 39.0202 10.2 39.4302C10.61 39.8402 10.61 40.4902 10.2 40.8902ZM25 47.5602C24.42 47.5602 23.93 47.0702 23.93 46.5002C23.93 45.9302 24.42 45.4402 25 45.4402C25.58 45.4402 26.07 45.9302 26.07 46.5002C26.07 47.1502 25.58 47.5602 25 47.5602ZM41.61 40.1602C41.61 40.7302 41.12 41.2202 40.54 41.2202C39.96 41.2202 39.47 40.7302 39.47 40.1602C39.47 39.5902 39.96 39.1002 40.54 39.1002C41.12 39.1002 41.61 39.5902 41.61 40.1602ZM25 39.2702C16.94 39.2702 10.36 32.7702 10.36 24.8002C10.36 16.8302 16.94 10.3302 25 10.3302C33.06 10.3302 39.64 16.8302 39.64 24.8002C39.64 32.7702 33.06 39.2702 25 39.2702ZM47.04 25.8602C46.46 25.8602 45.97 25.3702 45.97 24.8002C45.97 24.2302 46.46 23.7402 47.04 23.7402C47.62 23.7402 48.11 24.2302 48.11 24.8002C48.03 25.3702 47.62 25.8602 47.04 25.8602Z" fill="#892D7A"/>
</g>
</g>
</svg>
