<svg width="51" height="50" viewBox="0 0 51 50" fill="none" xmlns="http://www.w3.org/2000/svg">
<g id="1910, Desk, Job, Office, Person, Staff">
<g id="Group">
<path id="Vector" d="M46.3 18.6202C45.15 18.6202 44 19.0302 43.18 19.9202L40.14 21.7102H34.63C32.9 21.7102 31.5 23.0902 31.5 24.8002C31.5 25.1302 31.58 25.5302 31.66 25.8602H27.8L20.81 16.9202C20.65 16.6802 20.32 16.5102 20.07 16.5102L6.42 15.4502C6.01 15.4502 5.6 15.6102 5.43 15.9402C5.27 16.2702 5.27 16.7502 5.51 17.0802L11.6 25.8602H1.07C0.49 25.8602 0 26.3502 0 26.9202C0 27.4902 0.49 27.9802 1.07 27.9802H5.26V48.7102C5.26 49.2802 5.75 49.7702 6.33 49.7702C6.91 49.7702 7.4 49.2802 7.4 48.7102V27.9002H24.18V48.6302C24.18 49.2002 24.67 49.6902 25.25 49.6902C25.83 49.6902 26.32 49.2002 26.32 48.6302V27.9002H40.96C41.29 27.9002 41.7 27.8202 42.03 27.7402V33.1102H38.91C38.09 33.1102 37.27 33.4302 36.69 34.0002C36.61 34.0802 37.1 33.4302 28.8 44.8902C28.47 45.3802 28.55 46.0302 29.05 46.3502C29.54 46.6802 30.2 46.5902 30.53 46.1102L38.26 35.3802C38.43 35.2202 38.67 35.1402 38.92 35.1402H43.11C43.69 35.1402 44.18 34.6502 44.18 34.0802V25.9502C44.18 25.5402 44.01 25.2202 43.69 25.0602C43.36 24.9002 42.95 24.9002 42.62 25.0602L41.63 25.6302C41.47 25.7102 41.3 25.7902 41.05 25.7902H34.8C34.22 25.7902 33.73 25.3002 33.73 24.7302C33.73 24.1602 34.22 23.6702 34.8 23.6702H40.47C40.63 23.6702 40.88 23.5902 41.05 23.5102L44.5 21.4802C44.58 21.4002 44.66 21.3202 44.75 21.2402C45.16 20.7502 45.74 20.5102 46.39 20.5102C47.54 20.5902 48.45 21.4902 48.45 22.5402V34.9802C48.45 36.1202 47.55 37.0102 46.39 37.0102H39.89C39.56 37.0102 39.23 37.1702 39.07 37.4202L31.92 47.5802C31.59 48.0702 31.67 48.7202 32.17 49.0402C32.66 49.3702 33.32 49.2802 33.65 48.8002L40.48 39.0402H46.15C48.45 39.0402 50.34 37.1702 50.34 34.8902V22.7802C50.34 20.5002 48.61 18.7202 46.31 18.6302L46.3 18.6202ZM8.47 17.7302L19.41 18.5402L25.17 25.8602H14.15L8.48 17.7302H8.47Z" fill="#F8F8FA"/>
<path id="Vector_2" d="M45.0701 17.5602C47.9501 17.5602 50.3301 15.2002 50.3301 12.3602C50.3301 9.52016 47.9501 7.16016 45.0701 7.16016C42.1901 7.16016 39.8101 9.52016 39.8101 12.3602C39.8101 15.2002 42.1901 17.5602 45.0701 17.5602ZM45.0701 9.27016C46.8001 9.27016 48.1901 10.6502 48.1901 12.3602C48.1901 14.0702 46.7901 15.4502 45.0701 15.4502C43.3501 15.4502 41.9501 14.0702 41.9501 12.3602C41.9501 10.6502 43.3501 9.27016 45.0701 9.27016Z" fill="#F8F8FA"/>
<path id="Vector_3" d="M27.2199 14.47C31.2499 14.47 34.5399 11.22 34.5399 7.24C34.5399 3.26 31.2499 0 27.2199 0C23.1899 0 19.8999 3.25 19.8999 7.24C19.8999 11.23 23.1899 14.47 27.2199 14.47ZM27.2199 2.03C30.0999 2.03 32.4799 4.39 32.4799 7.23C32.4799 10.07 30.0999 12.43 27.2199 12.43C24.3399 12.43 21.9599 10.07 21.9599 7.23C22.0399 4.3 24.3399 2.03 27.2199 2.03Z" fill="#F8F8FA"/>
<path id="Vector_4" d="M28.6199 9.99977C29.0299 10.4098 29.6899 10.4098 30.0999 9.99977C30.5099 9.58977 30.5099 8.93977 30.0999 8.53977L28.2899 6.74977V4.06977C28.2899 3.49977 27.7999 3.00977 27.2199 3.00977C26.6399 3.00977 26.1499 3.49977 26.1499 4.06977V7.15977C26.1499 7.39977 26.2299 7.72977 26.4799 7.88977L28.6199 9.99977Z" fill="#F8F8FA"/>
</g>
</g>
</svg>
